<?xml version="1.0" encoding="utf-8"?>
<!-- Generator: Adobe Illustrator 23.0.3, SVG Export Plug-In . SVG Version: 6.00 Build 0)  -->
<svg version="1.1" id="Layer_1" xmlns="http://www.w3.org/2000/svg" xmlns:xlink="http://www.w3.org/1999/xlink" x="0px" y="0px"
	 width="92.3px" height="92.3px" viewBox="0 0 92.3 92.3" style="enable-background:new 0 0 92.3 92.3;" xml:space="preserve">
<style type="text/css">
	.st0{fill:#69DCFF;}
</style>
<g>
	<path class="st0" d="M92.3,39.6l-2.6-2.6l-6.6,6.6L48.8,9.2l6.6-6.6L52.8,0l-6.6,6.6L39.6,0l-2.6,2.6l6.6,6.6L9.2,43.5l-6.6-6.6
		L0,39.6l6.6,6.6L0,52.8l2.6,2.6l6.6-6.6l34.3,34.3l-6.6,6.6l2.6,2.6l6.6-6.6l6.6,6.6l2.6-2.6l-6.6-6.6l34.3-34.3l6.6,6.6l2.6-2.6
		l-6.6-6.6L92.3,39.6z M46.2,80.4L11.9,46.2l34.3-34.3l34.3,34.3L46.2,80.4z"/>
</g>
</svg>
